PathFileType        4      (X/Y/Z)      C:\Users\pc\Desktop\IMUTRC\Sujet_06\Sujet_06_velo_80.trc         
DataRate	CameraRate	NumFrames	NumMarkers	Units	OrigDataRate	OrigDataStartFrame	OrigNumFrames
60.0	60.0	4	64	mm	60.0	475	948
Frame#	Time	pHipOrigin			pRightASI			pLeftASI			pRightCSI			pLeftCSI			pRightIschialTub			pLeftIschialTub			pSacrum			pL5SpinalProcess			pL3SpinalProcess			pT12SpinalProcess			pIJ			pT4SpinalProcess			pT8SpinalProcess			pPX			pC7SpinalProcess			pTopOfHead			pRightAuricularis			pLeftAuricularis			pBackOfHead			pRightAcromion			pLeftAcromion			pRightArmLatEpicondyle			pRightArmMedEpicondyle			pLeftArmLatEpicondyle			pLeftArmMedEpicondyle			pRightUlnarStyloid			pRightRadialStyloid			pRightOlecranon			pLeftUlnarStyloid			pLeftRadialStyloid			pLeftOlecranon			pRightTopOfHand			pRightPinky			pRightBallHand			pLeftTopOfHand			pLeftPinky			pLeftBallHand			pRightGreaterTrochanter			pRightKneeLatEpicondyle			pRightKneeMedEpicondyle			pRightPatella			pLeftGreaterTrochanter			pLeftKneeLatEpicondyle			pLeftKneeMedEpicondyle			pLeftPatella			pRightTibialTub			pRightLatMalleolus			pRightMedMalleolus			pLeftTibialTub			pLeftLatMalleolus			pLeftMedMalleolus			pRightHeelFoot			pRightFirstMetatarsal			pRightFifthMetatarsal			pRightPivotFoot			pRightHeelCenter			pRightToe			pLeftHeelFoot			pLeftFirstMetatarsal			pLeftFifthMetatarsal			pLeftPivotFoot			pLeftHeelCenter			pLeftToe			
		X1	Y1	Z1	X2	Y2	Z2	X3	Y3	Z3	X4	Y4	Z4	X5	Y5	Z5	X6	Y6	Z6	X7	Y7	Z7	X8	Y8	Z8	X9	Y9	Z9	X10	Y10	Z10	X11	Y11	Z11	X12	Y12	Z12	X13	Y13	Z13	X14	Y14	Z14	X15	Y15	Z15	X16	Y16	Z16	X17	Y17	Z17	X18	Y18	Z18	X19	Y19	Z19	X20	Y20	Z20	X21	Y21	Z21	X22	Y22	Z22	X23	Y23	Z23	X24	Y24	Z24	X25	Y25	Z25	X26	Y26	Z26	X27	Y27	Z27	X28	Y28	Z28	X29	Y29	Z29	X30	Y30	Z30	X31	Y31	Z31	X32	Y32	Z32	X33	Y33	Z33	X34	Y34	Z34	X35	Y35	Z35	X36	Y36	Z36	X37	Y37	Z37	X38	Y38	Z38	X39	Y39	Z39	X40	Y40	Z40	X41	Y41	Z41	X42	Y42	Z42	X43	Y43	Z43	X44	Y44	Z44	X45	Y45	Z45	X46	Y46	Z46	X47	Y47	Z47	X48	Y48	Z48	X49	Y49	Z49	X50	Y50	Z50	X51	Y51	Z51	X52	Y52	Z52	X53	Y53	Z53	X54	Y54	Z54	X55	Y55	Z55	X56	Y56	Z56	X57	Y57	Z57	X58	Y58	Z58	X59	Y59	Z59	X60	Y60	Z60	X61	Y61	Z61	X62	Y62	Z62	X63	Y63	Z63	X64	Y64	Z64	
475	7.9	0.0	1250.06673	7.654451098075493E-14	41.48811000000001	1323.95896	130.29437000000007	79.85783999999998	1342.26254	-96.26326999999993	8.406090000000015	1385.51322	111.17730000000009	40.67461999999999	1400.83399	-79.85783999999991	-57.75795999999999	1199.22345	35.52250000000008	-41.62370000000001	1206.95163	-59.927279999999925	-56.80889	1271.35311	-7.863759999999915	-23.72686	1361.10845	3.7963000000000866	24.269190000000002	1469.70969	17.354510000000086	70.50268	1568.14227	28.60782000000009	316.1774	1647.59337	79.17993000000006	187.64559	1726.90888	52.47026000000009	127.0404	1659.93134	40.40346000000009	237.26863	1552.55034	63.58799000000006	232.11651	1772.60004	61.55426000000008	512.50024	1787.37849	53.012590000000046	416.7793	1779.37915	136.12440000000007	402.00085	1772.1933	-7.7281799999999405	402.81434	1832.25616	62.09659000000006	203.64428000000004	1748.33085	236.7263000000001	269.67275	1737.89103	-114.83801999999993	350.88641000000007	1487.87769	247.70845000000003	342.20916	1480.28509	185.74744000000007	430.06634	1498.31751	-144.25932999999998	407.55972	1475.13297	-90.16207999999997	512.77141	1293.45299	264.79179	545.58227	1322.73872	236.99747000000002	327.9730400000001	1472.28575	232.65884000000005	636.42226	1349.58397	-124.87108999999998	641.84554	1366.39615	-75.92596	413.93207	1481.23416	-143.98815999999997	696.75628	1312.70565	268.1813399999999	622.99963	1280.30153	281.87513	558.86931	1289.52111	256.65687	792.88397	1341.31346	-34.70901000000001	737.83765	1331.14481	-94.09396	668.96196	1338.87299	-100.19515	-4.6097899999999825	1214.40864	146.6998000000001	267.91018	950.15918	155.64822000000004	285.26468	957.48061	84.33205000000002	302.89035	985.13935	127.04040000000002	47.99604999999998	1246.13485	-143.44582999999992	359.56366	1032.86424	-104.12702999999999	352.24223	1025.40723	-31.183879999999977	375.83351	1064.45487	-59.52052999999998	291.77262	904.6036	125.14225000000002	-5.830029999999985	679.26619	121.75270000000005	4.067460000000008	674.79198	63.72358000000004	401.18736	998.29081	-67.11312999999998	306.68665	642.25229	-127.44715	306.41549	637.23575	-68.60453	-87.04368999999998	650.52279	78.77319000000006	19.25265000000001	528.90567	81.21366000000003	3.796300000000019	540.15898	155.10589000000002	25.218270000000015	518.33027	122.43061000000003	-62.096589999999985	624.08429	87.99277000000005	72.94316000000002	461.92813	141.00536000000002	254.8943	564.56376	-99.24608	411.08485	536.09152	-69.68919000000002	407.96646	539.48107	-145.88631000000004	430.87983	533.92221	-107.78775000000003	292.04379	559.95397	-100.87306000000001	505.85672	520.77075	-111.44847000000003	
476	7.917	0.0	1250.06673	7.654451098075493E-14	41.081370000000014	1324.3657	130.29437000000007	80.26458999999998	1341.99137	-96.26326999999993	8.134920000000013	1385.78438	110.90614000000008	41.21694999999999	1400.56283	-80.12900999999991	-58.029129999999995	1199.49461	35.52250000000008	-41.488110000000006	1206.81605	-60.06285999999992	-56.67331	1271.35311	-8.134919999999914	-23.59128	1361.10845	3.5251300000000865	24.133610000000004	1469.84527	17.218920000000086	70.09593	1568.27786	28.878980000000087	315.22832	1648.54244	80.94250000000005	186.42535	1727.45121	53.690500000000085	126.36249	1660.06692	41.21695000000008	236.7263	1553.22825	64.67265000000008	230.76069	1773.14237	63.18125000000008	511.28	1788.46315	56.402140000000045	415.01673	1780.19264	138.83604000000005	401.05178	1773.27795	-5.0165399999999405	401.32294	1833.20523	64.80823000000007	201.33938000000003	1748.05969	238.2177000000001	269.53716	1739.92476	-112.80428999999992	349.39501000000007	1487.87769	248.11520000000002	340.71775	1480.42067	186.15419000000006	430.20192	1500.35124	-142.76791999999998	406.33948	1476.08205	-89.75532999999997	511.6867500000001	1293.72416	265.06296	544.36203	1323.00988	237.13305000000003	326.4816400000001	1472.42133	233.06559000000004	635.06644	1349.71955	-124.46433999999999	640.6253	1366.26056	-75.38363	413.38975	1482.86115	-143.03908999999996	695.53604	1312.84123	268.31693	621.77939	1280.43711	282.1463	557.64907	1289.79227	256.92803	791.66373	1341.31346	-34.30226000000001	736.48183	1331.00923	-93.68721	667.60613	1338.7374	-99.78841	-3.118389999999982	1216.03563	146.97097000000008	281.87513	965.34437	157.27521000000002	298.41615	972.53022	85.68787000000002	314.95716	1001.4092	127.98948000000001	46.911399999999986	1242.88088	-143.58141999999992	343.15823	1008.59505	-104.53377999999998	335.97238	1002.35828	-31.455039999999983	362.00414	1039.37218	-60.33401999999998	303.2971	919.65321	126.49808000000002	-1.0846599999999849	703.3998	124.19318000000004	8.541670000000009	698.65443	66.02847000000004	386.00217	975.91977	-67.24870999999999	300.99221	617.1696	-126.49808	300.72104	612.42423	-67.65546	-83.51855999999998	677.77479	81.07808000000006	17.76125000000001	552.09021	83.24739000000002	2.847220000000019	563.88585	157.13962000000004	23.455700000000014	541.24364	124.46434000000004	-59.656109999999984	650.38721	90.29766000000005	68.87569000000002	482.94335	142.76792000000003	250.55567	538.66758	-98.297	407.28855	513.04257	-68.87569000000003	404.03458	516.43212	-145.07282000000004	427.08353	511.28	-107.10984000000003	287.84074	534.7357	-100.05957	502.33159	499.34878	-110.77055000000003	
477	7.933	0.0	1250.06673	7.654451098075493E-14	40.810200000000016	1324.63687	130.0232100000001	80.80691999999999	1341.44905	-96.39884999999992	7.999340000000013	1386.19113	110.49939000000009	41.62369999999999	1400.29167	-80.53574999999991	-58.16470999999999	1199.6302	35.52250000000008	-41.35253000000001	1206.68046	-59.927279999999925	-56.67331	1271.48869	-8.406089999999915	-23.4557	1361.10845	2.9828100000000863	24.133610000000004	1469.84527	16.812180000000087	69.82477	1568.41344	28.74340000000009	314.27925	1649.6271	82.16274000000006	185.3407	1727.85796	54.50399000000009	125.549	1660.33808	41.488110000000084	236.45514	1553.90616	65.21498000000007	229.40487	1773.82028	64.26590000000009	509.92418	1789.68338	59.52053000000004	413.11858	1781.14171	141.27652000000006	400.23828	1774.49819	-2.71163999999994	399.96712	1834.28989	67.24871000000007	199.17007000000004	1747.78852	239.30236000000008	269.40158	1742.36524	-111.17729999999992	347.76802000000004	1487.87769	248.25078000000005	339.09077	1480.42067	186.15419000000006	430.3375	1502.38497	-141.27651999999998	404.57691	1476.62437	-89.75532999999996	510.1953500000001	1293.85974	264.92737	542.87063	1323.14547	236.86188000000004	324.85465000000005	1472.42133	233.20117000000005	633.16829	1349.31281	-124.32875999999999	638.99832	1365.71824	-75.24805	412.57625	1484.35255	-142.22559999999996	694.04464	1312.57006	267.91018	620.28799	1280.43711	281.73955	556.15767	1289.79227	256.65687	789.76558	1340.77113	-34.031100000000016	734.71926	1330.60248	-93.41605	665.84357	1338.33066	-99.51724	-1.355819999999982	1217.93378	147.2421300000001	295.84009	982.02097	158.63103000000004	311.43203	988.93565	86.90811000000001	326.88838	1019.30604	128.53181000000004	45.419989999999984	1239.35574	-143.8525799999999	323.63441	983.91911	-105.61843999999999	316.85531	978.90258	-32.40411999999998	345.19196	1013.61159	-61.96100999999998	315.22832	936.32981	127.71831000000002	6.101190000000015	726.99108	126.36249000000004	15.591940000000008	721.70338	68.33337000000004	367.83417	952.46407	-68.19777999999998	291.36588	591.68017	-126.22691	291.09471	587.20596	-67.24871	-77.01061999999999	704.34888	83.24739000000005	19.79498000000001	575.13916	85.00996000000004	5.15212000000002	587.20596	158.90219000000002	24.947100000000013	563.88585	126.09133000000003	-54.232829999999986	676.14781	92.33139000000004	68.19778000000001	504.09415	144.39491000000004	242.14959	512.63582	-97.75468	399.28921	489.45129	-68.60453000000001	395.76408	492.56968	-144.80166000000003	418.94861	487.8243	-106.83867000000002	279.43466	509.24627	-99.51724	494.33224	477.11332	-110.77055000000003	
478	7.95	0.0	1250.06673	7.654451098075493E-14	40.67462000000001	1325.04361	129.8876300000001	81.34923999999998	1340.90672	-96.39884999999992	7.999340000000013	1386.46229	109.95706000000008	42.30160999999999	1399.88492	-80.94249999999991	-58.435869999999994	1199.90136	35.52250000000008	-41.35253000000001	1206.54488	-59.927279999999925	-56.53773	1271.62428	-8.677249999999916	-23.18453	1361.10845	2.576060000000086	24.269190000000002	1469.84527	16.541010000000085	69.5536	1568.41344	28.60782000000009	313.60134	1650.44059	83.38298000000006	184.39162	1728.40029	55.317490000000085	125.00667	1660.60925	41.89486000000009	236.18397	1554.58407	65.75731000000007	228.32021	1774.49819	65.48614000000009	508.83953	1790.63246	62.36775000000004	411.35601	1781.95521	143.44583000000006	399.56037	1775.71843	-0.5423299999999402	398.74688	1835.23896	69.55360000000007	197.00075000000004	1747.51736	240.2514400000001	269.67275	1744.67013	-109.41472999999992	346.27662000000004	1487.60652	248.25078000000005	337.46378	1480.42067	186.28977000000006	430.60867	1504.28312	-140.19186999999997	403.22109	1477.30228	-90.29765999999995	508.97511000000003	1293.85974	264.65621	541.51481	1323.14547	236.45514000000003	323.36325000000005	1472.15017	233.33675000000005	631.5413	1348.90606	-124.46433999999999	637.37133	1365.04033	-75.38362999999998	412.03392	1485.84395	-141.95442999999997	692.8244	1312.16332	267.36785	618.93217	1280.16595	281.3328	554.80185	1289.79227	256.25012	788.00302	1339.95764	-34.031100000000016	732.95669	1329.78899	-93.41605	664.081	1337.65275	-99.65282	0.13558000000001805	1219.83192	147.3777200000001	308.72038	998.83314	159.03777000000002	323.22767	1005.61225	87.04369000000001	337.46378	1037.20287	128.26064000000002	43.657429999999984	1236.23736	-144.12374999999992	303.02594	961.41249	-106.97425999999999	296.65358	957.48061	-33.48876999999998	327.15955	989.88473	-63.85915999999998	326.61722	953.0064	128.26064000000002	14.507280000000016	748.14189	128.39622000000006	23.726860000000006	742.58302	70.23151000000004	348.85268	930.90652	-69.55359999999999	278.89233	568.63122	-126.22691	278.75675	564.29259	-67.24871	-69.14685999999999	726.99108	85.14554000000005	25.48943000000001	596.15438	86.63695000000004	11.11773000000002	608.22119	160.66476000000003	30.370380000000015	584.76549	127.71831000000005	-46.77581999999999	698.24768	94.22954000000004	72.67199000000001	524.02472	145.88631000000004	230.35394	489.18012	-97.34793	387.62915	467.21583	-68.46895000000002	383.96844	470.19863	-144.80166000000003	407.28855	465.72443	-106.70309000000003	267.63902	486.06174	-99.24608	482.67219	455.55577	-110.77055000000003	
